<svg xmlns="http://www.w3.org/2000/svg" width="25.389" height="21.256" viewBox="0 0 25.389 21.256"><g transform="translate(-2.5 -7)"><path d="M12,22.333a1,1,0,0,1-1-1V8a1,1,0,0,1,2,0V21.333A1,1,0,0,1,12,22.333Z" transform="translate(3.5)" fill="#fff"/><path d="M14,18.914a1.2,1.2,0,0,1-.852-.352L8.293,13.707a1,1,0,0,1,1.414-1.414L14,16.586l4.293-4.293a1,1,0,0,1,1.414,1.414l-4.855,4.855A1.2,1.2,0,0,1,14,18.914Z" transform="translate(1.5 3.333)" fill="#fff"/><path d="M23.79,23.59H5.6A3.569,3.569,0,0,1,2,20.06V15a1,1,0,1,1,2,0v5.06a1.567,1.567,0,0,0,1.6,1.53H23.79a1.567,1.567,0,0,0,1.6-1.53V15a1,1,0,0,1,2,0v5.06A3.569,3.569,0,0,1,23.79,23.59Z" transform="translate(0.5 4.667)" fill="#fff"/></g></svg>